<svg width="50" height="50" viewBox="0 0 50 50" fill="none" xmlns="http://www.w3.org/2000/svg">
<g clip-path="url(#clip0_140_3)">
<path fill-rule="evenodd" clip-rule="evenodd" d="M0.0503898 18.4903L13.9218 2.44961C13.9569 2.40999 14.0061 2.38574 14.0589 2.38209C14.1117 2.37844 14.1638 2.39567 14.204 2.43008L34.7518 20.1979C34.7914 20.2336 34.8155 20.2833 34.8192 20.3365C34.8228 20.3897 34.8057 20.4422 34.7713 20.483L20.9003 36.5234C20.8647 36.5632 20.815 36.5876 20.7618 36.5913C20.7085 36.5951 20.6559 36.5779 20.6151 36.5435L0.0703117 18.7754C0.0500757 18.7581 0.0334912 18.737 0.0215296 18.7132C0.009568 18.6894 0.00246985 18.6635 0.000650925 18.637C-0.001168 18.6104 0.00232888 18.5838 0.0109367 18.5586C0.0195446 18.5334 0.0330903 18.5102 0.0507805 18.4903H0.0503898Z" fill="#006694"/>
<path fill-rule="evenodd" clip-rule="evenodd" d="M9.25517 10.9389L18.939 6.52344L34.7517 20.1979C34.7914 20.2336 34.8155 20.2833 34.8192 20.3365C34.8228 20.3897 34.8056 20.4422 34.7713 20.483L20.9003 36.5234C20.8647 36.5632 20.815 36.5876 20.7618 36.5913C20.7085 36.5951 20.6559 36.5779 20.6151 36.5435L19.6317 35.6911L8.84472 12.0364C8.75399 11.8364 8.74621 11.6086 8.82309 11.4029C8.89996 11.1972 9.05522 11.0304 9.25487 10.9389H9.25517Z" fill="#005C85"/>
<path fill-rule="evenodd" clip-rule="evenodd" d="M9.51463 11.509L28.8108 2.71182C28.8593 2.69021 28.9143 2.68857 28.9639 2.70725C29.0135 2.72593 29.0538 2.76344 29.076 2.81163L40.3447 27.5271C40.3561 27.551 40.3627 27.5769 40.364 27.6034C40.3653 27.6299 40.3613 27.6564 40.3523 27.6813C40.3433 27.7062 40.3294 27.7291 40.3115 27.7486C40.2935 27.7682 40.2719 27.7839 40.2478 27.795L20.9515 36.5918C20.9027 36.6132 20.8474 36.6147 20.7974 36.5961C20.7474 36.5775 20.7066 36.5401 20.6836 36.492L9.41483 11.7773C9.39297 11.7285 9.39118 11.6731 9.40985 11.6229C9.42852 11.5728 9.46616 11.532 9.51463 11.5094V11.509Z" fill="#60B7FF"/>
<path fill-rule="evenodd" clip-rule="evenodd" d="M20.9686 8.48164H31.662L40.3447 27.5271C40.3561 27.551 40.3627 27.5769 40.364 27.6034C40.3653 27.6299 40.3613 27.6564 40.3523 27.6813C40.3433 27.7062 40.3294 27.7291 40.3115 27.7486C40.2935 27.7682 40.2719 27.7839 40.2478 27.795L20.9515 36.5918C20.9027 36.6132 20.8474 36.6147 20.7974 36.5961C20.7474 36.5775 20.7066 36.5401 20.6836 36.492L20.142 35.3006V9.31114C20.1417 9.20238 20.1629 9.09464 20.2044 8.99408C20.2458 8.89353 20.3066 8.80212 20.3834 8.72508C20.4602 8.64805 20.5514 8.5869 20.6518 8.54513C20.7522 8.50336 20.8599 8.48178 20.9686 8.48164Z" fill="#56A5E6"/>
<path fill-rule="evenodd" clip-rule="evenodd" d="M20.9686 9.10879H36.7614L42.3772 14.7246V36.4727C42.377 36.5263 42.3556 36.5776 42.3177 36.6155C42.2798 36.6535 42.2285 36.6749 42.1749 36.6751H20.9686C20.9422 36.6749 20.9161 36.6696 20.8918 36.6593C20.8675 36.649 20.8454 36.6341 20.8269 36.6153C20.8083 36.5965 20.7937 36.5742 20.7838 36.5497C20.7739 36.5252 20.7689 36.4991 20.7691 36.4727V9.31114C20.7689 9.28474 20.7739 9.25856 20.7838 9.2341C20.7937 9.20964 20.8084 9.18737 20.8269 9.16857C20.8454 9.14978 20.8675 9.13482 20.8918 9.12456C20.9161 9.11431 20.9422 9.10895 20.9686 9.10879Z" fill="#EAF6FF"/>
<path fill-rule="evenodd" clip-rule="evenodd" d="M36.7614 9.10879V13.4643C36.7621 13.7982 36.895 14.1182 37.1311 14.3543C37.3672 14.5904 37.6873 14.7234 38.0212 14.724H42.3766L36.7614 9.10879Z" fill="#BEC7CF"/>
<path fill-rule="evenodd" clip-rule="evenodd" d="M25.8262 28.2597H42.3973C43.2372 28.2622 44.042 28.597 44.6359 29.1909C45.2298 29.7849 45.5646 30.5897 45.5672 31.4296V44.4486C45.5651 45.2887 45.2305 46.0938 44.6365 46.6879C44.0424 47.2819 43.2374 47.6166 42.3973 47.6187H13.0182C12.1782 47.6161 11.3734 47.2813 10.7794 46.6874C10.1855 46.0934 9.85069 45.2886 9.84814 44.4486V25.0897C9.85 24.3995 10.1252 23.7381 10.6135 23.2503C11.1018 22.7626 11.7635 22.4881 12.4537 22.487H17.9868C18.9048 22.487 19.5291 23.0515 20.1847 23.69L23.6283 27.0566C24.284 27.6981 24.9083 28.2597 25.8262 28.2597Z" fill="#FFBA57"/>
<path d="M24.2213 14.6477C24.036 14.6455 23.859 14.5703 23.7287 14.4385C23.5985 14.3067 23.5254 14.1288 23.5254 13.9435C23.5254 13.7582 23.5985 13.5803 23.7287 13.4485C23.859 13.3167 24.036 13.2415 24.2213 13.2394H33.5317C33.717 13.2415 33.894 13.3167 34.0242 13.4485C34.1545 13.5803 34.2276 13.7582 34.2276 13.9435C34.2276 14.1288 34.1545 14.3067 34.0242 14.4385C33.894 14.5703 33.717 14.6455 33.5317 14.6477H24.2213ZM24.2213 24.9211C24.0346 24.9211 23.8555 24.8469 23.7234 24.7149C23.5914 24.5828 23.5172 24.4037 23.5172 24.217C23.5172 24.0303 23.5914 23.8512 23.7234 23.7191C23.8555 23.5871 24.0346 23.5129 24.2213 23.5129H38.9251C39.1119 23.5129 39.291 23.5871 39.423 23.7191C39.555 23.8512 39.6292 24.0303 39.6292 24.217C39.6292 24.4037 39.555 24.5828 39.423 24.7149C39.291 24.8469 39.1119 24.9211 38.9251 24.9211H24.2213ZM24.2213 21.4975C24.036 21.4953 23.859 21.4201 23.7287 21.2883C23.5985 21.1565 23.5254 20.9786 23.5254 20.7933C23.5254 20.608 23.5985 20.4301 23.7287 20.2983C23.859 20.1665 24.036 20.0913 24.2213 20.0892H38.9251C39.0183 20.0881 39.1108 20.1055 39.1971 20.1404C39.2835 20.1753 39.3622 20.227 39.4284 20.2924C39.4947 20.3579 39.5473 20.4359 39.5832 20.5219C39.6191 20.6079 39.6376 20.7001 39.6376 20.7933C39.6376 20.8865 39.6191 20.9787 39.5832 21.0647C39.5473 21.1507 39.4947 21.2287 39.4284 21.2942C39.3622 21.3597 39.2835 21.4114 39.1971 21.4463C39.1108 21.4812 39.0183 21.4986 38.9251 21.4975H24.2213ZM24.2213 18.0737C24.1289 18.0737 24.0373 18.0555 23.9519 18.0201C23.8664 17.9848 23.7888 17.9329 23.7234 17.8675C23.6581 17.8021 23.6062 17.7245 23.5708 17.6391C23.5354 17.5537 23.5172 17.4621 23.5172 17.3696C23.5172 17.2772 23.5354 17.1856 23.5708 17.1002C23.6062 17.0148 23.6581 16.9371 23.7234 16.8718C23.7888 16.8064 23.8664 16.7545 23.9519 16.7191C24.0373 16.6837 24.1289 16.6655 24.2213 16.6655H38.9251C39.0176 16.6655 39.1091 16.6837 39.1946 16.7191C39.28 16.7545 39.3576 16.8064 39.423 16.8718C39.4884 16.9371 39.5402 17.0148 39.5756 17.1002C39.611 17.1856 39.6292 17.2772 39.6292 17.3696C39.6292 17.4621 39.611 17.5537 39.5756 17.6391C39.5402 17.7245 39.4884 17.8021 39.423 17.8675C39.3576 17.9329 39.28 17.9848 39.1946 18.0201C39.1091 18.0555 39.0176 18.0737 38.9251 18.0737H24.2213Z" fill="#BEC7CF"/>
<path d="M14.3209 39.1179C14.1341 39.1179 13.955 39.0437 13.823 38.9116C13.6909 38.7796 13.6168 38.6005 13.6168 38.4138C13.6168 38.227 13.6909 38.0479 13.823 37.9159C13.955 37.7839 14.1341 37.7097 14.3209 37.7097H21.1881C21.3749 37.7097 21.554 37.7839 21.686 37.9159C21.8181 38.0479 21.8922 38.227 21.8922 38.4138C21.8922 38.6005 21.8181 38.7796 21.686 38.9116C21.554 39.0437 21.3749 39.1179 21.1881 39.1179H14.3209ZM14.3209 43.927C14.1341 43.927 13.955 43.8528 13.823 43.7207C13.6909 43.5887 13.6168 43.4096 13.6168 43.2229C13.6168 43.0361 13.6909 42.857 13.823 42.725C13.955 42.5929 14.1341 42.5188 14.3209 42.5188H41.0944C41.2811 42.5188 41.4602 42.5929 41.5923 42.725C41.7243 42.857 41.7985 43.0361 41.7985 43.2229C41.7985 43.4096 41.7243 43.5887 41.5923 43.7207C41.4602 43.8528 41.2811 43.927 41.0944 43.927H14.3209Z" fill="#CF9646"/>
<path fill-rule="evenodd" clip-rule="evenodd" d="M42.3773 28.7927C42.8122 29.0817 43.169 29.4735 43.4162 29.9334C43.6634 30.3934 43.7932 30.9072 43.7942 31.4294V44.4486C43.7921 45.2887 43.4574 46.0938 42.8634 46.6879C42.2693 47.2819 41.4642 47.6166 40.6241 47.6187H42.3973C43.2374 47.6166 44.0425 47.2819 44.6365 46.6879C45.2305 46.0938 45.5651 45.2887 45.5672 44.4486V31.4296C45.5678 31.0137 45.4855 30.6018 45.3249 30.2181C45.0838 29.6398 44.6774 29.1455 44.1566 28.7971C43.6358 28.4487 43.0238 28.2618 42.3973 28.2597H40.6241C41.2484 28.2596 41.8587 28.4451 42.3773 28.7927ZM23.6283 27.0566L20.7692 24.263L20.1847 23.69C19.5291 23.0515 18.9048 22.487 17.9868 22.487H16.2166C17.1317 22.487 17.756 23.0515 18.4116 23.69L20.7692 25.9934L21.8581 27.0566C22.5109 27.6981 23.1352 28.2597 24.0531 28.2597H25.8262C24.9082 28.2597 24.284 27.6981 23.6283 27.0566Z" fill="#E6A74E"/>
<path fill-rule="evenodd" clip-rule="evenodd" d="M43.9993 37.6185C45.1862 37.6185 46.3463 37.2665 47.3331 36.6072C48.32 35.9478 49.0891 35.0106 49.5433 33.9141C49.9974 32.8177 50.1163 31.6111 49.8847 30.4471C49.6532 29.2831 49.0817 28.2139 48.2425 27.3747C47.4033 26.5354 46.334 25.9639 45.17 25.7324C44.006 25.5009 42.7995 25.6197 41.703 26.0739C40.6065 26.528 39.6693 27.2972 39.01 28.284C38.3506 29.2708 37.9987 30.431 37.9987 31.6178C38.0016 33.2083 38.6348 34.7329 39.7595 35.8576C40.8842 36.9823 42.4088 37.6155 43.9993 37.6185Z" fill="#25C73B"/>
<path d="M40.4132 32.433C40.3461 32.368 40.2926 32.2904 40.2558 32.2045C40.2189 32.1187 40.1996 32.0264 40.1988 31.933C40.1979 31.8396 40.2157 31.747 40.251 31.6605C40.2863 31.5741 40.3385 31.4955 40.4044 31.4294C40.4704 31.3632 40.5488 31.3109 40.6352 31.2754C40.7216 31.2398 40.8142 31.2218 40.9076 31.2224C41.001 31.223 41.0933 31.2421 41.1792 31.2787C41.2652 31.3153 41.343 31.3686 41.4081 31.4356L42.7593 32.7867L46.5874 28.9586C46.7193 28.8267 46.8982 28.7525 47.0848 28.7525C47.2714 28.7525 47.4503 28.8266 47.5823 28.9585C47.7142 29.0905 47.7883 29.2694 47.7883 29.456C47.7884 29.6426 47.7142 29.8215 47.5823 29.9534L43.2553 34.2803C43.1231 34.4117 42.9443 34.4855 42.7579 34.4855C42.5714 34.4855 42.3926 34.4117 42.2604 34.2803L40.4132 32.433Z" fill="#EAF6FF"/>
<path fill-rule="evenodd" clip-rule="evenodd" d="M43.4891 25.637C44.9613 25.7618 46.3358 26.4254 47.3494 27.5005C48.3629 28.5757 48.9442 29.987 48.982 31.464C49.0197 32.9411 48.5113 34.3802 47.5541 35.5058C46.5969 36.6314 45.2581 37.3643 43.7941 37.5643C43.6928 37.5787 43.5911 37.5901 43.4891 37.5984C43.5917 37.607 43.6915 37.6127 43.7941 37.6156C43.8625 37.6185 43.9308 37.6185 43.9992 37.6185C44.5288 37.6194 45.0561 37.5494 45.5671 37.4104C46.9711 37.0303 48.1892 36.1532 48.995 34.9423C49.8007 33.7313 50.1392 32.269 49.9475 30.8271C49.7559 29.3853 49.047 28.0622 47.9529 27.1038C46.8587 26.1455 45.4537 25.6171 43.9992 25.6171C43.8281 25.6171 43.6574 25.6228 43.489 25.6366L43.4891 25.637Z" fill="#21B335"/>
<path fill-rule="evenodd" clip-rule="evenodd" d="M41.0944 14.7246V26.364C41.5001 26.1397 41.9306 25.9637 42.3772 25.8395V14.7246H41.0944Z" fill="#D3DDE6"/>
</g>
<defs>
<clipPath id="clip0_140_3">
<rect width="50" height="50" fill="white"/>
</clipPath>
</defs>
</svg>
