<svg width="78" height="78" viewBox="0 0 78 78" fill="none" xmlns="http://www.w3.org/2000/svg">
<path d="M5.31817 68.2572H17.7273V38.1208L9.60162 23.9318L0 24.8253V62.939C0 65.8773 2.37991 68.2572 5.31817 68.2572Z" fill="#0085F7"/>
<path d="M60.2726 68.2572H72.6818C75.6201 68.2572 78 65.8773 78 62.939V24.8253L68.4122 23.9318L60.2728 38.1208V68.2572H60.2726Z" fill="#00A94B"/>
<path d="M60.2726 15.0753L52.9835 28.9848L60.2726 38.1208L78 24.8253V17.7345C78 11.1621 70.4969 7.40833 65.2363 11.3527L60.2726 15.0753Z" fill="#FFBC00"/>
<path fill-rule="evenodd" clip-rule="evenodd" d="M17.7273 38.1208L10.7815 23.4486L17.7273 15.0753L39 31.0298L60.2726 15.0753V38.1208L39 54.0753L17.7273 38.1208Z" fill="#FF4131"/>
<path d="M0 17.7345V24.8253L17.7273 38.1208V15.0753L12.7637 11.3527C7.50308 7.40833 0 11.1621 0 17.7345Z" fill="#E51C19"/>
</svg>
