<svg width="69" height="69" viewBox="0 0 69 69" fill="none" xmlns="http://www.w3.org/2000/svg">
<g clip-path="url(#clip0_49_35)">
<path d="M62.1 0H6.9C3.105 0 0 3.105 0 6.9V62.1C0 65.895 3.105 69 6.9 69H62.1C65.895 69 69 65.895 69 62.1V6.9C69 3.105 65.895 0 62.1 0ZM20.7 58.65H10.35V27.6H20.7V58.65ZM15.525 21.735C12.075 21.735 9.315 18.975 9.315 15.525C9.315 12.075 12.075 9.315 15.525 9.315C18.975 9.315 21.735 12.075 21.735 15.525C21.735 18.975 18.975 21.735 15.525 21.735ZM58.65 58.65H48.3V40.365C48.3 37.6051 45.885 35.19 43.125 35.19C40.365 35.19 37.95 37.6051 37.95 40.365V58.65H27.6V27.6H37.95V31.74C39.675 28.98 43.47 26.91 46.575 26.91C53.13 26.91 58.65 32.43 58.65 38.985V58.65Z" fill="#3742FA"/>
</g>
<defs>
<clipPath id="clip0_49_35">
<rect width="69" height="69" fill="white"/>
</clipPath>
</defs>
</svg>
