<svg width="116" height="116" viewBox="0 0 116 116" fill="none" xmlns="http://www.w3.org/2000/svg">
<path d="M103.939 0H11.5488C5.19697 0 0 5.19697 0 11.5488V103.939C0 110.291 5.19697 115.488 11.5488 115.488H103.939C110.291 115.488 115.488 110.291 115.488 103.939V11.5488C115.488 5.19697 110.291 0 103.939 0ZM34.6465 98.165H17.3232V46.1953H34.6465V98.165ZM25.9849 36.3788C20.2104 36.3788 15.5909 31.7593 15.5909 25.9849C15.5909 20.2104 20.2104 15.5909 25.9849 15.5909C31.7593 15.5909 36.3788 20.2104 36.3788 25.9849C36.3788 31.7593 31.7593 36.3788 25.9849 36.3788ZM98.165 98.165H80.8418V67.5606C80.8418 62.9413 76.7997 58.899 72.1802 58.899C67.5606 58.899 63.5185 62.9413 63.5185 67.5606V98.165H46.1953V46.1953H63.5185V53.1246C66.4057 48.5051 72.7576 45.0404 77.9546 45.0404C88.9259 45.0404 98.165 54.2795 98.165 65.2509V98.165Z" fill="#444444"/>
</svg>
