<svg width="75" height="75" viewBox="0 0 75 75" fill="none" xmlns="http://www.w3.org/2000/svg">
<g clip-path="url(#clip0_94_29)">
<path d="M55.0781 13.3301H19.9219C16.2872 13.3301 13.3301 16.2873 13.3301 19.9219V55.0781C13.3301 58.7128 16.2873 61.6699 19.9219 61.6699H55.0781C58.7128 61.6699 61.6699 58.7127 61.6699 55.0781V19.9219C61.6699 16.2872 58.7127 13.3301 55.0781 13.3301ZM37.5 52.8809C29.02 52.8809 22.1191 45.98 22.1191 37.5C22.1191 29.02 29.02 22.1191 37.5 22.1191C45.98 22.1191 52.8809 29.02 52.8809 37.5C52.8809 45.98 45.98 52.8809 37.5 52.8809ZM52.8809 26.5137C50.458 26.5137 48.4863 24.542 48.4863 22.1191C48.4863 19.6963 50.458 17.7246 52.8809 17.7246C55.3037 17.7246 57.2754 19.6963 57.2754 22.1191C57.2754 24.542 55.3037 26.5137 52.8809 26.5137Z" fill="#3742FA"/>
<path d="M37.5 26.5137C31.4426 26.5137 26.5137 31.4426 26.5137 37.5C26.5137 43.5574 31.4426 48.4863 37.5 48.4863C43.5574 48.4863 48.4863 43.5574 48.4863 37.5C48.4863 31.4426 43.5574 26.5137 37.5 26.5137Z" fill="#3742FA"/>
<path d="M63.8672 0H11.1328C5.07539 0 0 5.07539 0 11.1328V63.8672C0 69.9246 5.07539 75 11.1328 75H63.8672C69.9246 75 75 69.9246 75 63.8672V11.1328C75 5.07539 69.9246 0 63.8672 0ZM66.0645 55.0781C66.0645 61.1355 61.1355 66.0645 55.0781 66.0645H19.9219C13.8645 66.0645 8.93555 61.1355 8.93555 55.0781V19.9219C8.93555 13.8645 13.8645 8.93555 19.9219 8.93555H55.0781C61.1355 8.93555 66.0645 13.8645 66.0645 19.9219V55.0781Z" fill="#3742FA"/>
</g>
<defs>
<clipPath id="clip0_94_29">
<rect width="75" height="75" fill="white"/>
</clipPath>
</defs>
</svg>
