<svg width="118" height="118" viewBox="0 0 118 118" fill="none" xmlns="http://www.w3.org/2000/svg">
<path d="M86.0409 20.8237H31.1212C25.4432 20.8237 20.8237 25.4434 20.8237 31.1212V86.0408C20.8237 91.7188 25.4434 96.3383 31.1212 96.3383H86.0409C91.7189 96.3383 96.3383 91.7186 96.3383 86.0408V31.1212C96.3383 25.4432 91.7186 20.8237 86.0409 20.8237ZM58.581 82.6084C45.3339 82.6084 34.5537 71.8281 34.5537 58.581C34.5537 45.3339 45.3339 34.5536 58.581 34.5536C71.8281 34.5536 82.6084 45.3339 82.6084 58.581C82.6084 71.8281 71.8281 82.6084 58.581 82.6084ZM82.6084 41.4186C78.8235 41.4186 75.7434 38.3385 75.7434 34.5536C75.7434 30.7688 78.8235 27.6887 82.6084 27.6887C86.3933 27.6887 89.4733 30.7688 89.4733 34.5536C89.4733 38.3385 86.3933 41.4186 82.6084 41.4186Z" fill="#444444"/>
<path d="M58.581 41.4186C49.1184 41.4186 41.4186 49.1183 41.4186 58.581C41.4186 68.0437 49.1184 75.7434 58.581 75.7434C68.0437 75.7434 75.7434 68.0437 75.7434 58.581C75.7434 49.1183 68.0437 41.4186 58.581 41.4186Z" fill="#444444"/>
<path d="M99.7707 0H17.3912C7.92857 0 0 7.92857 0 17.3912V99.7707C0 109.233 7.92857 117.162 17.3912 117.162H99.7707C109.233 117.162 117.162 109.233 117.162 99.7707V17.3912C117.162 7.92857 109.233 0 99.7707 0ZM103.203 86.0408C103.203 95.5035 95.5035 103.203 86.0408 103.203H31.1212C21.6585 103.203 13.9588 95.5035 13.9588 86.0408V31.1212C13.9588 21.6585 21.6585 13.9588 31.1212 13.9588H86.0408C95.5035 13.9588 103.203 21.6585 103.203 31.1212V86.0408Z" fill="#444444"/>
</svg>
