<svg width="78" height="78" viewBox="0 0 78 78" fill="none" xmlns="http://www.w3.org/2000/svg">
<g clip-path="url(#clip0_102_9)">
<path fill-rule="evenodd" clip-rule="evenodd" d="M39 0C60.5399 0 78 17.4601 78 39C78 60.5399 60.5399 78 39 78C17.4601 78 0 60.5399 0 39C0 17.4601 17.4601 0 39 0Z" fill="url(#paint0_linear_102_9)"/>
<path d="M17.8913 28.7V44.1599C17.9065 47.6562 20.7614 50.4684 24.2425 50.4547H46.7787C47.42 50.4547 47.935 49.9398 47.935 49.3137V33.8523C47.9212 30.3575 45.0663 27.5438 41.5837 27.5575H19.0475C18.4077 27.5575 17.8913 28.0724 17.8913 28.7ZM49.37 34.7298L58.6737 27.9338C59.4811 27.265 60.1087 27.4325 60.1087 28.6437V49.3685C60.1087 50.7472 59.3425 50.5812 58.6737 50.08L49.37 43.2961V34.7298Z" fill="white"/>
</g>
<defs>
<linearGradient id="paint0_linear_102_9" x1="10.3335" y1="12.5562" x2="72.2399" y2="59.411" gradientUnits="userSpaceOnUse">
<stop stop-color="#4A8CFF"/>
<stop offset="1" stop-color="#23B7EC"/>
</linearGradient>
<clipPath id="clip0_102_9">
<rect width="78" height="78" fill="white"/>
</clipPath>
</defs>
</svg>
